<svg width="446" height="211" viewBox="0 0 446 211" fill="none" xmlns="http://www.w3.org/2000/svg">
<path d="M416.679 195.731L0.450684 195.633L29.1234 76.6826L445.346 76.78L416.679 195.731Z" fill="#FEFFD2" stroke="#C9C545" stroke-width="0.71" stroke-miterlimit="10"/>
<path d="M382.684 13.3597C386.373 13.3597 389.364 10.3691 389.364 6.67987C389.364 2.99068 386.373 0 382.684 0C378.995 0 376.004 2.99068 376.004 6.67987C376.004 10.3691 378.995 13.3597 382.684 13.3597Z" fill="#C9D851"/>
<path d="M396.67 50.9269C402.556 50.9269 407.328 46.1552 407.328 40.2689C407.328 34.3826 402.556 29.6108 396.67 29.6108C390.784 29.6108 386.012 34.3826 386.012 40.2689C386.012 46.1552 390.784 50.9269 396.67 50.9269Z" fill="#C9D851"/>
<path d="M190.321 60.0676L184.528 92.3904L180.273 92.3801L184.595 68.2803L169.523 92.3494L166.534 92.3391L160.059 68.3008L155.738 92.3084L151.483 92.2981L157.322 59.9753L161.9 59.9907L169.067 86.741L185.779 60.0574L190.311 60.0727L190.321 60.0676Z" fill="#0B3C49"/>
<path d="M193.392 72.6275C194.817 70.6537 196.55 69.126 198.59 68.0392C200.631 66.9575 202.81 66.4141 205.111 66.4192C207.357 66.4244 209.207 66.9165 210.669 67.8854C212.13 68.8543 213.14 70.0744 213.693 71.5406L214.549 66.8704L218.85 66.8806L214.247 92.4774L209.946 92.4671L210.848 87.7046C209.72 89.1964 208.239 90.4319 206.398 91.4059C204.558 92.38 202.533 92.867 200.318 92.8619C198.324 92.8567 196.565 92.421 195.043 91.5597C193.52 90.6985 192.336 89.4732 191.5 87.884C190.665 86.2948 190.25 84.4544 190.255 82.3679C190.255 81.4348 190.352 80.4813 190.542 79.5175C191.019 76.903 191.967 74.6063 193.387 72.6326L193.392 72.6275ZM212.468 77.5182C212.473 75.242 211.801 73.4426 210.448 72.1148C209.095 70.787 207.377 70.1206 205.291 70.1155C203.702 70.1155 202.184 70.4794 200.733 71.2228C199.283 71.9661 198.042 73.053 197.006 74.4833C195.976 75.9136 195.284 77.5951 194.935 79.5226C194.807 80.1788 194.746 80.8914 194.74 81.6706C194.735 83.9776 195.397 85.7924 196.735 87.1201C198.073 88.4479 199.78 89.1144 201.871 89.1195C203.461 89.1195 204.978 88.7453 206.429 87.9865C207.88 87.2278 209.131 86.1256 210.176 84.6799C211.222 83.2342 211.919 81.5476 212.268 79.6149C212.396 78.9587 212.458 78.2615 212.463 77.513L212.468 77.5182Z" fill="#0B3C49"/>
<path d="M229.893 79.7174L239.669 92.5491L233.877 92.5338L225.869 81.2503L223.828 92.5081L219.573 92.4979L225.792 57.9348L230.047 57.9451L226.392 78.2154L238.296 66.9421L244.186 66.9575L229.893 79.7226V79.7174Z" fill="#0B3C49"/>
<path d="M250.635 66.9729L246.026 92.5645L241.776 92.5543L246.38 66.9575L250.635 66.9729Z" fill="#0B3C49"/>
<path d="M274.93 68.7006C276.514 70.1206 277.303 72.1917 277.293 74.8985C277.293 75.8982 277.211 76.7851 277.052 77.5643L274.345 92.6517L270.141 92.6415L272.751 78.1641C272.879 77.5079 272.94 76.8261 272.946 76.1084C272.951 74.2065 272.433 72.7556 271.392 71.756C270.352 70.7563 268.896 70.2539 267.024 70.2488C264.779 70.2436 262.872 70.9357 261.293 72.3353C259.714 73.7348 258.689 75.77 258.212 78.4512V78.3589L255.649 92.6056L251.394 92.5953L255.997 66.9986L260.247 67.0088L259.581 70.6999C260.642 69.3619 261.97 68.3366 263.564 67.624C265.153 66.9114 266.819 66.5577 268.568 66.5628C271.213 66.5731 273.33 67.2856 274.919 68.7057L274.93 68.7006Z" fill="#0B3C49"/>
<path d="M300.258 68.1418C301.75 69.1107 302.76 70.3308 303.288 71.797L304.144 67.1267L308.446 67.137L303.745 93.2925C303.334 95.6302 302.463 97.7065 301.135 99.5264C299.807 101.346 298.126 102.766 296.101 103.787C294.071 104.807 291.825 105.314 289.365 105.309C286.002 105.299 283.341 104.489 281.383 102.879C279.424 101.269 278.481 99.106 278.548 96.3992L282.803 96.4094C282.987 97.9679 283.72 99.2239 285.012 100.177C286.304 101.131 287.975 101.613 290.031 101.618C292.369 101.623 294.409 100.9 296.157 99.4392C297.905 97.9782 299.018 95.9275 299.495 93.2771L300.443 87.9045C299.315 89.3964 297.844 90.637 296.014 91.6315C294.189 92.6261 292.169 93.1182 289.959 93.108C287.965 93.1028 286.207 92.6722 284.684 91.8058C283.162 90.9446 281.972 89.7193 281.121 88.1301C280.27 86.5409 279.845 84.7004 279.85 82.6139C279.85 81.6809 279.947 80.7274 280.137 79.7636C280.614 77.1491 281.562 74.8524 282.982 72.8787C284.407 70.905 286.14 69.3773 288.18 68.2904C290.226 67.2036 292.4 66.6653 294.706 66.6704C296.916 66.6756 298.772 67.1677 300.264 68.1366L300.258 68.1418ZM302.053 77.7745C302.058 75.4983 301.386 73.6989 300.038 72.3711C298.69 71.0434 296.967 70.3769 294.881 70.3718C293.292 70.3718 291.774 70.7358 290.323 71.4791C288.872 72.2225 287.632 73.3093 286.596 74.7396C285.561 76.1699 284.874 77.8514 284.525 79.779C284.397 80.4352 284.335 81.1478 284.33 81.927C284.325 84.2339 284.987 86.0487 286.325 87.3765C287.657 88.7043 289.37 89.3707 291.461 89.3758C293.051 89.3758 294.568 89.0016 296.019 88.2429C297.47 87.4842 298.721 86.3819 299.766 84.9363C300.812 83.4906 301.509 81.804 301.858 79.8713C301.986 79.2202 302.048 78.5179 302.053 77.7694V77.7745Z" fill="#0B3C49"/>
<path d="M82.0602 114.511L70.7101 114.48C68.1161 114.47 66.1065 115.049 64.6813 116.218C63.251 117.382 62.5384 118.776 62.5333 120.391C62.5333 121.453 63.0152 122.539 63.9892 123.647C64.9633 124.754 66.2552 125.482 67.87 125.825L65.3016 131.49C63.0921 130.803 61.3337 129.963 60.0162 128.958C58.6987 127.953 57.7144 126.923 57.0582 125.856C56.402 124.79 55.9816 123.77 55.7919 122.791C55.6022 121.811 55.51 121.007 55.51 120.366C55.51 118.71 55.8278 117.105 56.4481 115.557C57.0684 114.009 57.9656 112.63 59.1395 111.42C60.3135 110.21 61.7284 109.251 63.3894 108.529C65.0504 107.811 66.9011 107.457 68.9415 107.462L91.1291 107.524L88.7452 116.444C88.0121 119.079 87.2842 121.765 86.5562 124.503C85.8231 127.24 85.0336 129.993 84.1724 132.751L103.556 132.808L112.871 107.524L120.268 107.544L102.664 155.821C102.361 156.585 101.997 157.656 101.572 159.035C101.141 160.414 100.864 161.762 100.731 163.08C100.598 164.397 100.767 165.546 101.233 166.525C101.7 167.504 102.674 167.996 104.161 168.001C105.268 168.001 106.381 167.699 107.508 167.089C108.636 166.474 109.626 165.853 110.477 165.218L115.306 169.949C113.429 171.559 111.579 172.81 109.749 173.697C107.918 174.584 105.986 175.025 103.945 175.02C101.398 175.014 99.3367 174.466 97.7679 173.374C96.1992 172.287 95.0765 170.836 94.3998 169.027C93.7231 167.217 93.477 165.105 93.6513 162.68C93.8256 160.26 94.4101 157.707 95.3943 155.036L101.244 139.113L82.1166 139.057C80.7017 143.179 79.1279 147.08 77.3951 150.776C75.6623 154.467 73.7194 157.718 71.5662 160.517C69.4131 163.316 67.0139 165.541 64.3737 167.191C61.7336 168.842 58.7756 169.662 55.5048 169.652C54.1873 169.652 52.88 169.432 51.5882 169.001C50.2911 168.57 49.0813 167.95 47.9586 167.14C46.8359 166.33 45.8464 165.371 45.0006 164.264C44.1547 163.157 43.4985 161.921 43.0371 160.563L49.676 157.456C49.8041 157.923 50.0348 158.466 50.3732 159.086C50.7115 159.702 51.1473 160.281 51.6753 160.814C52.2033 161.347 52.8544 161.803 53.6183 162.188C54.3821 162.572 55.2536 162.767 56.2328 162.767C58.4423 162.772 60.5186 162.003 62.4564 160.455C64.3942 158.912 66.1834 156.851 67.829 154.288C69.4695 151.72 70.9869 148.792 72.3814 145.501C73.7706 142.21 75.0472 138.816 76.2058 135.31C77.3643 131.808 78.405 128.337 79.3278 124.892C80.2506 121.453 81.076 118.31 81.809 115.465L82.0654 114.511H82.0602Z" fill="#3F7D20"/>
<path d="M127.27 157.677C129.142 157.682 130.808 157.431 132.279 156.928C133.745 156.421 135.042 155.78 136.175 154.995C137.303 154.211 138.262 153.345 139.051 152.391C139.841 151.438 140.492 150.515 141.004 149.623L142.481 146.947L147.392 146.962L144.89 151.863C144.162 153.263 143.204 154.708 142.009 156.19C140.815 157.677 139.451 159.01 137.918 160.194C136.385 161.378 134.704 162.352 132.874 163.111C131.044 163.87 129.111 164.249 127.07 164.244C124.051 164.233 121.544 163.752 119.55 162.788C117.556 161.824 115.997 160.568 114.874 159.015C113.752 157.461 113.044 155.682 112.752 153.683C112.46 151.684 112.521 149.633 112.926 147.531C113.337 145.429 114.064 143.379 115.11 141.385C116.156 139.39 117.458 137.622 119.017 136.073C120.57 134.525 122.359 133.28 124.384 132.326C126.404 131.372 128.583 130.901 130.926 130.911C133.094 130.916 134.929 131.393 136.437 132.331C137.944 133.269 139.01 134.474 139.646 135.945C140.282 137.411 140.435 139.031 140.112 140.79C139.789 142.553 138.892 144.25 137.421 145.881C135.95 147.511 133.832 148.962 131.064 150.228C128.296 151.494 124.789 152.376 120.534 152.873C120.867 154.237 121.57 155.375 122.631 156.287C123.692 157.205 125.24 157.666 127.281 157.672L127.27 157.677ZM121.052 146.819C124.497 146.619 127.25 146.009 129.316 144.994C131.382 143.979 132.797 142.923 133.566 141.82C134.335 140.718 134.504 139.718 134.084 138.826C133.663 137.934 132.705 137.483 131.218 137.478C130.07 137.478 128.972 137.74 127.932 138.268C126.886 138.796 125.922 139.493 125.025 140.364C124.128 141.236 123.338 142.23 122.657 143.353C121.975 144.476 121.436 145.634 121.052 146.824V146.819Z" fill="#3F7D20"/>
<path d="M170.067 150.72C169.81 151.402 169.585 152.145 169.39 152.95C169.195 153.755 169.108 154.524 169.128 155.241C169.149 155.964 169.359 156.569 169.759 157.061C170.159 157.554 170.851 157.8 171.83 157.8C172.722 157.8 173.594 157.548 174.445 157.041C175.296 156.533 176.116 155.887 176.905 155.103C177.695 154.319 178.418 153.447 179.079 152.494C179.74 151.54 180.284 150.617 180.714 149.725L182.063 147.049L186.974 147.065L184.6 151.966C183.913 153.411 183.052 154.872 182.006 156.359C180.96 157.846 179.797 159.179 178.52 160.368C177.244 161.552 175.87 162.516 174.398 163.259C172.932 163.998 171.41 164.367 169.836 164.362C168.134 164.356 166.627 163.885 165.314 162.947C163.997 162.008 163.048 160.732 162.459 159.112C161.223 160.599 159.86 161.783 158.368 162.67C156.876 163.557 155.302 163.998 153.646 163.998C151.052 163.987 148.899 163.505 147.182 162.547C145.464 161.588 144.157 160.337 143.27 158.804C142.383 157.272 141.866 155.518 141.722 153.539C141.578 151.561 141.763 149.536 142.281 147.454C142.799 145.373 143.609 143.348 144.721 141.374C145.833 139.4 147.177 137.652 148.75 136.125C150.329 134.597 152.129 133.361 154.149 132.408C156.169 131.459 158.352 130.988 160.69 130.993C162.602 130.998 164.171 131.418 165.407 132.249C166.637 133.079 167.59 134.136 168.267 135.412L169.615 131.654L177.075 131.675L170.072 150.72H170.067ZM162.546 150.956C162.587 150.827 162.633 150.715 162.674 150.607C162.715 150.499 162.761 150.381 162.802 150.258L165.053 144.014C165.268 143.338 165.345 142.615 165.284 141.846C165.222 141.082 165.032 140.38 164.714 139.739C164.397 139.098 163.93 138.58 163.315 138.175C162.7 137.77 161.926 137.565 160.987 137.56C159.414 137.56 157.917 138.052 156.486 139.047C155.061 140.041 153.81 141.282 152.744 142.763C151.678 144.25 150.832 145.87 150.212 147.634C149.591 149.397 149.289 151.022 149.304 152.509C149.319 153.996 149.689 155.241 150.411 156.241C151.129 157.241 152.298 157.743 153.913 157.748C154.846 157.748 155.717 157.574 156.527 157.215C157.337 156.856 158.091 156.359 158.793 155.723C159.496 155.088 160.157 154.355 160.777 153.529C161.398 152.704 161.982 151.843 162.536 150.951L162.546 150.956Z" fill="#3F7D20"/>
<path d="M188.112 150.771C187.855 151.453 187.63 152.196 187.435 153.001C187.24 153.806 187.153 154.575 187.174 155.298C187.194 156.021 187.404 156.626 187.804 157.118C188.204 157.61 188.896 157.856 189.875 157.856C190.767 157.856 191.639 157.605 192.49 157.097C193.341 156.59 194.161 155.944 194.951 155.159C195.74 154.375 196.463 153.509 197.124 152.55C197.786 151.596 198.329 150.674 198.76 149.782L200.108 147.106L205.019 147.121L202.646 152.022C201.959 153.468 201.097 154.929 200.051 156.415C199.006 157.902 197.842 159.235 196.565 160.424C195.289 161.614 193.915 162.572 192.444 163.316C190.978 164.054 189.455 164.423 187.881 164.418C186.435 164.418 185.118 164.059 183.934 163.357C182.744 162.649 181.801 161.67 181.104 160.414C180.407 159.158 180.007 157.671 179.904 155.949C179.802 154.226 180.114 152.345 180.842 150.31L193.5 115.788L200.959 115.808L188.107 150.771H188.112Z" fill="#3F7D20"/>
<path d="M206.151 150.822C205.894 151.504 205.699 152.247 205.571 153.052C205.443 153.857 205.479 154.626 205.694 155.349C205.904 156.072 206.33 156.682 206.966 157.169C207.601 157.661 208.56 157.907 209.831 157.912C210.723 157.912 211.595 157.661 212.446 157.154C213.297 156.646 214.117 156 214.907 155.216C215.696 154.431 216.419 153.56 217.08 152.606C217.742 151.653 218.285 150.73 218.716 149.838L220.064 147.162L224.975 147.177L222.602 152.078C221.915 153.524 221.053 154.985 220.008 156.472C218.962 157.958 217.798 159.291 216.522 160.481C215.245 161.665 213.871 162.629 212.4 163.372C210.934 164.11 209.411 164.479 207.837 164.474C206.053 164.469 204.449 164.115 203.029 163.408C201.603 162.7 200.46 161.721 199.594 160.465C198.727 159.209 198.199 157.717 198.015 156C197.83 154.278 198.122 152.396 198.891 150.361L203.839 136.858L200.332 136.847L202.198 131.752L205.705 131.762L210.395 119.022L217.854 119.043L213.164 131.782L218.772 131.798L216.906 136.894L211.298 136.878L206.156 150.827L206.151 150.822Z" fill="#3F7D20"/>
<path d="M213.191 163.787L230.734 115.89L238.193 115.911L231.251 134.828C232.656 133.725 234.179 132.849 235.819 132.192C237.454 131.536 239.213 131.213 241.084 131.218C242.868 131.224 244.442 131.577 245.8 132.285C247.159 132.992 248.23 133.971 249.015 135.227C249.799 136.483 250.25 137.97 250.373 139.693C250.496 141.415 250.173 143.297 249.399 145.332L247.277 151.063C247.021 151.745 246.795 152.488 246.6 153.293C246.405 154.098 246.318 154.867 246.339 155.59C246.359 156.313 246.569 156.918 246.969 157.41C247.369 157.902 248.061 158.148 249.04 158.148C249.932 158.148 250.804 157.897 251.655 157.389C252.506 156.882 253.326 156.236 254.116 155.452C254.905 154.667 255.628 153.796 256.289 152.842C256.951 151.889 257.494 150.966 257.925 150.074L259.273 147.398L264.184 147.413L261.811 152.314C261.124 153.76 260.262 155.221 259.217 156.708C258.171 158.194 257.007 159.527 255.73 160.717C254.454 161.901 253.08 162.865 251.609 163.608C250.143 164.346 248.62 164.715 247.046 164.71C245.6 164.71 244.283 164.351 243.099 163.649C241.909 162.941 240.966 161.962 240.269 160.706C239.572 159.45 239.172 157.964 239.069 156.241C238.967 154.519 239.279 152.637 240.007 150.602L242.13 144.87C242.386 144.194 242.612 143.45 242.807 142.64C243.001 141.835 243.032 141.067 242.909 140.344C242.786 139.621 242.432 139.016 241.863 138.524C241.289 138.032 240.366 137.786 239.09 137.78C237.434 137.775 235.881 138.247 234.43 139.2C232.984 140.154 231.702 141.287 230.595 142.599C229.488 143.912 228.524 145.27 227.714 146.67C226.904 148.069 226.304 149.218 225.92 150.11L224.51 153.293L220.655 163.803L213.196 163.782L213.191 163.787Z" fill="#3F7D20"/>
<path d="M273.519 158.092C275.39 158.097 277.056 157.846 278.527 157.343C279.993 156.836 281.295 156.195 282.423 155.411C283.551 154.626 284.51 153.76 285.299 152.806C286.089 151.853 286.74 150.93 287.253 150.038L288.724 147.367L293.635 147.382L291.133 152.283C290.405 153.683 289.447 155.129 288.252 156.61C287.058 158.097 285.694 159.43 284.161 160.614C282.628 161.798 280.947 162.772 279.117 163.531C277.287 164.29 275.354 164.669 273.313 164.659C270.294 164.649 267.787 164.167 265.793 163.203C263.799 162.239 262.24 160.983 261.117 159.43C259.995 157.876 259.287 156.098 258.995 154.098C258.703 152.099 258.759 150.048 259.175 147.946C259.585 145.845 260.313 143.794 261.358 141.8C262.404 139.805 263.706 138.037 265.265 136.489C266.818 134.94 268.607 133.695 270.632 132.741C272.657 131.788 274.836 131.321 277.174 131.326C278.958 131.331 280.511 131.644 281.824 132.264C283.141 132.885 284.136 133.792 284.812 134.981C285.489 136.176 285.812 137.611 285.786 139.288C285.761 140.969 285.279 142.866 284.336 144.988L278.409 144.014C278.707 143.379 278.989 142.707 279.245 142.01C279.501 141.313 279.629 140.651 279.634 140.036C279.634 139.421 279.476 138.908 279.158 138.503C278.84 138.098 278.276 137.893 277.471 137.893C275.897 137.893 274.411 138.385 273.006 139.38C271.601 140.375 270.386 141.615 269.361 143.097C268.336 144.583 267.577 146.203 267.085 147.967C266.593 149.73 266.459 151.356 266.69 152.842C266.921 154.329 267.572 155.575 268.653 156.579C269.735 157.579 271.36 158.087 273.524 158.092H273.519Z" fill="#3F7D20"/>
<path d="M316.321 151.135C316.064 151.817 315.839 152.56 315.644 153.365C315.449 154.17 315.362 154.939 315.383 155.662C315.403 156.385 315.613 156.99 316.013 157.482C316.413 157.974 317.105 158.22 318.084 158.22C318.976 158.22 319.848 157.969 320.699 157.461C321.55 156.954 322.37 156.308 323.16 155.523C323.949 154.739 324.672 153.873 325.333 152.914C325.994 151.96 326.538 151.038 326.969 150.146L328.317 147.47L333.228 147.485L330.854 152.386C330.173 153.832 329.306 155.293 328.26 156.779C327.215 158.266 326.051 159.599 324.774 160.783C323.498 161.967 322.124 162.931 320.653 163.674C319.186 164.413 317.664 164.782 316.09 164.777C314.388 164.777 312.881 164.3 311.568 163.362C310.251 162.424 309.302 161.147 308.713 159.527C307.477 161.014 306.114 162.198 304.622 163.085C303.13 163.972 301.556 164.413 299.9 164.408C297.306 164.402 295.153 163.915 293.431 162.957C291.713 161.993 290.406 160.747 289.519 159.214C288.632 157.682 288.115 155.928 287.971 153.949C287.827 151.971 288.012 149.946 288.53 147.864C289.048 145.783 289.858 143.758 290.97 141.784C292.082 139.811 293.426 138.062 294.999 136.535C296.578 135.007 298.373 133.771 300.398 132.818C302.418 131.869 304.596 131.393 306.939 131.403C308.851 131.408 310.42 131.828 311.656 132.659C312.886 133.495 313.839 134.546 314.516 135.822L315.864 132.064L323.324 132.085L316.321 151.125V151.135ZM308.795 151.371C308.836 151.243 308.882 151.125 308.923 151.022C308.964 150.915 309.01 150.797 309.051 150.674L311.302 144.43C311.517 143.753 311.594 143.03 311.533 142.261C311.471 141.497 311.281 140.795 310.963 140.154C310.646 139.518 310.179 138.995 309.564 138.59C308.949 138.185 308.175 137.98 307.236 137.98C305.663 137.98 304.166 138.472 302.735 139.467C301.31 140.462 300.059 141.702 298.998 143.184C297.932 144.67 297.086 146.29 296.466 148.054C295.845 149.817 295.543 151.443 295.558 152.929C295.574 154.416 295.943 155.662 296.666 156.661C297.383 157.661 298.552 158.163 300.167 158.169C301.1 158.169 301.972 157.994 302.782 157.635C303.592 157.277 304.345 156.779 305.047 156.144C305.75 155.508 306.411 154.775 307.031 153.949C307.647 153.124 308.236 152.263 308.79 151.371H308.795Z" fill="#3F7D20"/>
<path d="M348.389 151.227C348.133 151.909 347.907 152.653 347.712 153.457C347.517 154.262 347.441 155.031 347.482 155.754C347.523 156.477 347.743 157.082 348.148 157.574C348.548 158.066 349.24 158.312 350.219 158.312C351.111 158.312 351.983 158.061 352.834 157.554C353.685 157.046 354.505 156.4 355.294 155.616C356.084 154.831 356.807 153.965 357.468 153.006C358.129 152.053 358.673 151.13 359.103 150.238L360.447 147.562L365.358 147.577L362.984 152.478C362.297 153.924 361.436 155.385 360.39 156.872C359.344 158.358 358.181 159.691 356.904 160.876C355.628 162.06 354.254 163.024 352.782 163.767C351.316 164.505 349.794 164.874 348.22 164.869C346.774 164.869 345.457 164.51 344.272 163.808C343.083 163.106 342.14 162.121 341.443 160.865C340.745 159.609 340.345 158.123 340.243 156.4C340.14 154.678 340.453 152.796 341.186 150.761L345.621 138.596C343.96 138.975 342.217 139.16 340.392 139.154C339.925 139.154 339.443 139.154 338.956 139.154C338.469 139.154 337.967 139.108 337.459 139.021C336.731 140.252 336.029 141.631 335.342 143.158C334.655 144.686 334.014 146.024 333.42 147.167L332.071 149.843L327.16 149.828L329.534 144.927C330.046 143.825 330.59 142.692 331.169 141.523C331.748 140.354 332.333 139.242 332.933 138.18C332.594 138.093 332.251 137.996 331.912 137.888C331.574 137.781 331.231 137.683 330.892 137.601L332.563 132.121C334.05 132.592 335.439 132.926 336.736 133.121C338.033 133.315 339.274 133.413 340.463 133.418C341.909 133.418 343.247 133.31 344.483 133.08C345.718 132.849 346.887 132.546 347.994 132.167L355.392 132.187L348.389 151.233V151.227Z" fill="#3F7D20"/>
<path d="M374.636 158.379C376.507 158.384 378.174 158.133 379.645 157.63C381.111 157.123 382.413 156.482 383.541 155.698C384.669 154.913 385.628 154.047 386.417 153.093C387.206 152.14 387.858 151.217 388.37 150.325L389.842 147.649L394.753 147.664L392.251 152.565C391.523 153.965 390.564 155.411 389.37 156.892C388.175 158.379 386.812 159.712 385.279 160.896C383.746 162.08 382.065 163.054 380.234 163.813C378.404 164.572 376.472 164.951 374.431 164.946C371.412 164.936 368.905 164.454 366.911 163.49C364.916 162.526 363.358 161.27 362.235 159.717C361.112 158.164 360.405 156.385 360.113 154.385C359.821 152.386 359.877 150.335 360.292 148.234C360.702 146.132 361.43 144.081 362.476 142.087C363.522 140.093 364.824 138.324 366.383 136.776C367.936 135.228 369.725 133.982 371.75 133.028C373.775 132.075 375.954 131.608 378.291 131.613C380.46 131.618 382.295 132.095 383.802 133.033C385.31 133.972 386.376 135.176 387.012 136.642C387.647 138.109 387.801 139.729 387.473 141.487C387.15 143.251 386.253 144.947 384.782 146.583C383.31 148.213 381.193 149.664 378.425 150.93C375.656 152.196 372.15 153.078 367.895 153.575C368.233 154.939 368.93 156.077 369.992 156.99C371.053 157.907 372.601 158.369 374.641 158.374L374.636 158.379ZM368.418 147.526C371.863 147.326 374.616 146.716 376.682 145.701C378.748 144.686 380.163 143.63 380.932 142.528C381.701 141.425 381.87 140.426 381.449 139.534C381.024 138.642 380.07 138.191 378.584 138.186C377.435 138.186 376.338 138.447 375.298 138.975C374.252 139.503 373.288 140.2 372.391 141.072C371.494 141.938 370.704 142.938 370.022 144.061C369.341 145.183 368.802 146.342 368.418 147.531V147.526Z" fill="#3F7D20"/>
<path d="M81.6071 114.07L70.257 114.04C67.663 114.029 65.6534 114.609 64.2282 115.777C62.7979 116.941 62.0853 118.336 62.0802 119.95C62.0802 121.012 62.5621 122.098 63.5361 123.206C64.5101 124.313 65.802 125.041 67.4169 125.385L64.8485 131.049C62.639 130.362 60.8806 129.522 59.563 128.517C58.2455 127.512 57.2612 126.482 56.605 125.415C55.9488 124.349 55.5285 123.329 55.3388 122.35C55.1491 121.37 55.0568 120.566 55.0568 119.925C55.0568 118.269 55.3747 116.664 55.995 115.116C56.6153 113.568 57.5124 112.189 58.6864 110.979C59.8604 109.769 61.2753 108.81 62.9363 108.088C64.5973 107.37 66.448 107.016 68.4883 107.021L90.6759 107.083L88.2921 116.003C87.559 118.638 86.8311 121.324 86.1031 124.062C85.37 126.799 84.5805 129.552 83.7193 132.31L103.103 132.367L112.418 107.083L119.815 107.103L102.211 155.38C101.908 156.144 101.544 157.215 101.119 158.594C100.688 159.973 100.411 161.321 100.278 162.639C100.145 163.957 100.314 165.105 100.78 166.084C101.247 167.063 102.221 167.555 103.708 167.56C104.815 167.56 105.927 167.258 107.055 166.648C108.183 166.033 109.172 165.412 110.023 164.777L114.853 169.509C112.976 171.118 111.126 172.369 109.296 173.256C107.465 174.143 105.533 174.584 103.492 174.579C100.944 174.574 98.8835 174.025 97.3148 172.933C95.7461 171.846 94.6234 170.395 93.9467 168.586C93.27 166.776 93.0239 164.664 93.1982 162.239C93.3725 159.819 93.9569 157.266 94.9412 154.595L100.791 138.672L81.6635 138.616C80.2486 142.738 78.6747 146.639 76.942 150.335C75.2092 154.026 73.2663 157.277 71.1131 160.076C68.96 162.875 66.5608 165.1 63.9206 166.75C61.2804 168.401 58.3224 169.221 55.0517 169.211C53.7342 169.211 52.4269 168.991 51.135 168.56C49.838 168.13 48.6282 167.509 47.5055 166.699C46.3827 165.889 45.3933 164.931 44.5474 163.823C43.7016 162.716 43.0454 161.48 42.584 160.122L49.2228 157.015C49.351 157.482 49.5817 158.025 49.92 158.645C50.2584 159.261 50.6942 159.84 51.2222 160.373C51.7502 160.906 52.4013 161.363 53.1651 161.747C53.929 162.131 54.8005 162.326 55.7797 162.326C57.9892 162.331 60.0654 161.562 62.0033 160.014C63.9411 158.471 65.7303 156.41 67.3759 153.847C69.0164 151.279 70.5338 148.351 71.9282 145.06C73.3175 141.769 74.594 138.375 75.7526 134.869C76.9112 131.367 77.9519 127.897 78.8747 124.451C79.7975 121.012 80.6228 117.869 81.3559 115.024L81.6123 114.07H81.6071Z" fill="#C9D851"/>
<path d="M126.812 157.236C128.684 157.241 130.35 156.99 131.821 156.487C133.287 155.98 134.584 155.339 135.717 154.555C136.845 153.77 137.804 152.904 138.593 151.95C139.383 150.997 140.034 150.074 140.546 149.182L142.023 146.506L146.934 146.521L144.432 151.422C143.704 152.822 142.746 154.267 141.551 155.749C140.357 157.236 138.993 158.569 137.46 159.753C135.927 160.937 134.246 161.911 132.416 162.67C130.586 163.429 128.653 163.808 126.612 163.803C123.593 163.793 121.086 163.311 119.092 162.347C117.098 161.383 115.539 160.127 114.416 158.574C113.294 157.02 112.586 155.242 112.294 153.242C112.002 151.243 112.063 149.192 112.468 147.09C112.879 144.988 113.606 142.938 114.652 140.944C115.698 138.949 117 137.181 118.559 135.633C120.112 134.084 121.901 132.839 123.926 131.885C125.946 130.932 128.125 130.46 130.468 130.47C132.636 130.475 134.471 130.952 135.979 131.89C137.486 132.828 138.552 134.033 139.188 135.504C139.824 136.971 139.977 138.591 139.654 140.349C139.331 142.112 138.434 143.809 136.963 145.44C135.492 147.07 133.374 148.521 130.606 149.787C127.838 151.053 124.331 151.935 120.076 152.432C120.409 153.796 121.112 154.934 122.173 155.846C123.234 156.764 124.782 157.225 126.823 157.231L126.812 157.236ZM120.599 146.378C124.044 146.178 126.797 145.568 128.863 144.553C130.929 143.538 132.344 142.482 133.113 141.379C133.882 140.277 134.051 139.278 133.631 138.385C133.21 137.493 132.252 137.042 130.765 137.037C129.617 137.037 128.52 137.299 127.479 137.827C126.433 138.355 125.469 139.052 124.572 139.923C123.675 140.795 122.885 141.79 122.204 142.912C121.522 144.035 120.984 145.194 120.599 146.383V146.378Z" fill="#C9D851"/>
<path d="M169.613 150.279C169.357 150.961 169.131 151.704 168.937 152.509C168.742 153.314 168.655 154.083 168.675 154.801C168.696 155.523 168.906 156.128 169.306 156.62C169.706 157.113 170.398 157.359 171.377 157.359C172.269 157.359 173.14 157.107 173.991 156.6C174.842 156.092 175.663 155.446 176.452 154.662C177.242 153.878 177.964 153.006 178.626 152.053C179.287 151.099 179.83 150.176 180.261 149.284L181.609 146.608L186.521 146.624L184.147 151.525C183.46 152.97 182.599 154.431 181.553 155.918C180.507 157.405 179.343 158.738 178.067 159.927C176.79 161.111 175.417 162.075 173.945 162.818C172.479 163.557 170.956 163.926 169.383 163.921C167.681 163.915 166.173 163.444 164.861 162.506C163.543 161.568 162.595 160.291 162.006 158.671C160.77 160.158 159.406 161.342 157.915 162.229C156.423 163.116 154.849 163.557 153.193 163.557C150.599 163.546 148.446 163.064 146.728 162.106C145.011 161.147 143.704 159.896 142.817 158.363C141.93 156.831 141.412 155.077 141.269 153.099C141.125 151.12 141.31 149.095 141.828 147.013C142.345 144.932 143.155 142.907 144.268 140.933C145.38 138.96 146.723 137.211 148.297 135.684C149.876 134.156 151.676 132.921 153.695 131.967C155.715 131.019 157.899 130.547 160.237 130.552C162.149 130.557 163.718 130.978 164.953 131.808C166.184 132.639 167.137 133.695 167.814 134.971L169.162 131.213L176.621 131.234L169.618 150.279H169.613ZM162.088 150.51C162.129 150.381 162.175 150.269 162.216 150.161C162.257 150.053 162.303 149.935 162.344 149.812L164.594 143.568C164.81 142.892 164.887 142.169 164.825 141.4C164.764 140.636 164.574 139.934 164.256 139.293C163.938 138.652 163.472 138.134 162.857 137.729C162.241 137.324 161.467 137.119 160.529 137.114C158.955 137.114 157.458 137.606 156.028 138.601C154.603 139.595 153.352 140.836 152.286 142.317C151.219 143.804 150.373 145.424 149.753 147.188C149.133 148.951 148.83 150.576 148.846 152.063C148.861 153.55 149.23 154.795 149.953 155.795C150.671 156.795 151.84 157.297 153.454 157.302C154.388 157.302 155.259 157.128 156.069 156.769C156.879 156.41 157.633 155.913 158.335 155.277C159.037 154.642 159.699 153.909 160.319 153.083C160.939 152.258 161.524 151.397 162.077 150.504L162.088 150.51Z" fill="#C9D851"/>
<path d="M187.654 150.33C187.398 151.012 187.172 151.755 186.977 152.56C186.782 153.365 186.695 154.134 186.716 154.857C186.736 155.58 186.946 156.185 187.346 156.677C187.746 157.169 188.438 157.415 189.417 157.415C190.309 157.415 191.181 157.164 192.032 156.656C192.883 156.149 193.703 155.503 194.493 154.718C195.282 153.934 196.005 153.068 196.666 152.109C197.328 151.155 197.871 150.233 198.302 149.341L199.65 146.665L204.561 146.68L202.188 151.581C201.501 153.027 200.639 154.488 199.594 155.974C198.548 157.461 197.384 158.794 196.108 159.983C194.831 161.173 193.457 162.131 191.986 162.875C190.52 163.613 188.997 163.982 187.423 163.977C185.978 163.977 184.66 163.618 183.476 162.916C182.286 162.208 181.343 161.229 180.646 159.973C179.949 158.717 179.549 157.23 179.446 155.508C179.344 153.785 179.657 151.904 180.385 149.869L193.042 115.347L200.501 115.367L187.649 150.33H187.654Z" fill="#C9D851"/>
<path d="M205.697 150.381C205.441 151.063 205.246 151.807 205.118 152.611C204.99 153.416 205.026 154.185 205.241 154.908C205.451 155.631 205.877 156.241 206.512 156.728C207.148 157.22 208.107 157.466 209.378 157.471C210.27 157.471 211.142 157.22 211.993 156.713C212.844 156.205 213.664 155.559 214.453 154.775C215.243 153.99 215.966 153.119 216.627 152.165C217.288 151.212 217.832 150.289 218.262 149.397L219.611 146.721L224.522 146.736L222.148 151.637C221.461 153.083 220.6 154.544 219.554 156.031C218.509 157.518 217.345 158.85 216.068 160.04C214.792 161.224 213.418 162.188 211.947 162.931C210.48 163.669 208.958 164.038 207.384 164.033C205.6 164.028 203.995 163.675 202.575 162.967C201.15 162.26 200.007 161.28 199.14 160.024C198.274 158.768 197.746 157.277 197.562 155.559C197.377 153.837 197.669 151.955 198.438 149.92L203.385 136.417L199.879 136.406L201.745 131.311L205.251 131.321L209.942 118.582L217.401 118.602L212.71 131.341L218.319 131.357L216.453 136.453L210.844 136.437L205.702 150.387L205.697 150.381Z" fill="#C9D851"/>
<path d="M212.74 163.341L230.283 115.444L237.742 115.465L230.801 134.381C232.205 133.279 233.728 132.403 235.368 131.746C237.004 131.09 238.762 130.767 240.633 130.772C242.417 130.778 243.991 131.131 245.35 131.839C246.708 132.546 247.78 133.525 248.564 134.781C249.348 136.037 249.799 137.524 249.922 139.247C250.045 140.969 249.723 142.851 248.948 144.886L246.826 150.617C246.57 151.299 246.344 152.042 246.149 152.847C245.955 153.652 245.867 154.421 245.888 155.144C245.908 155.867 246.119 156.472 246.518 156.964C246.918 157.456 247.61 157.702 248.59 157.702C249.482 157.702 250.353 157.451 251.204 156.943C252.055 156.436 252.875 155.79 253.665 155.006C254.454 154.221 255.177 153.35 255.838 152.396C256.5 151.443 257.043 150.52 257.474 149.628L258.822 146.952L263.733 146.967L261.36 151.868C260.673 153.314 259.812 154.775 258.766 156.262C257.72 157.748 256.556 159.081 255.28 160.27C254.003 161.455 252.629 162.418 251.158 163.162C249.687 163.905 248.169 164.269 246.595 164.264C245.15 164.264 243.832 163.905 242.648 163.203C241.459 162.495 240.515 161.516 239.818 160.26C239.121 159.004 238.721 157.518 238.618 155.795C238.516 154.072 238.829 152.191 239.557 150.156L241.679 144.424C241.935 143.748 242.161 143.004 242.356 142.194C242.551 141.389 242.581 140.62 242.458 139.898C242.335 139.175 241.981 138.57 241.412 138.078C240.838 137.586 239.915 137.34 238.639 137.334C236.983 137.329 235.43 137.801 233.979 138.754C232.533 139.708 231.252 140.841 230.144 142.153C229.037 143.466 228.073 144.824 227.263 146.224C226.453 147.623 225.853 148.772 225.469 149.664L224.059 152.847L220.204 163.357L212.745 163.336L212.74 163.341Z" fill="#C9D851"/>
<path d="M273.065 157.651C274.937 157.656 276.603 157.405 278.074 156.902C279.54 156.395 280.842 155.754 281.97 154.97C283.098 154.185 284.057 153.319 284.846 152.365C285.636 151.412 286.287 150.489 286.799 149.597L288.271 146.926L293.182 146.942L290.68 151.843C289.952 153.242 288.994 154.688 287.799 156.169C286.605 157.656 285.241 158.989 283.708 160.173C282.175 161.357 280.494 162.331 278.664 163.09C276.833 163.849 274.901 164.228 272.86 164.218C269.841 164.208 267.334 163.726 265.34 162.762C263.346 161.798 261.787 160.542 260.664 158.989C259.542 157.436 258.834 155.657 258.542 153.657C258.25 151.658 258.306 149.607 258.721 147.506C259.132 145.404 259.859 143.353 260.905 141.359C261.951 139.365 263.253 137.596 264.812 136.048C266.365 134.5 268.154 133.254 270.179 132.3C272.199 131.352 274.383 130.88 276.721 130.885C278.505 130.89 280.058 131.203 281.37 131.823C282.688 132.444 283.682 133.351 284.359 134.541C285.036 135.735 285.359 137.17 285.333 138.847C285.308 140.528 284.826 142.425 283.882 144.547L277.956 143.573C278.253 142.938 278.535 142.266 278.792 141.569C279.048 140.872 279.176 140.21 279.181 139.595C279.181 138.98 279.022 138.467 278.705 138.062C278.387 137.657 277.823 137.452 277.018 137.452C275.444 137.452 273.957 137.945 272.553 138.939C271.148 139.934 269.933 141.174 268.908 142.656C267.883 144.142 267.124 145.762 266.632 147.526C266.139 149.29 266.006 150.915 266.237 152.401C266.468 153.888 267.119 155.134 268.2 156.139C269.282 157.138 270.907 157.646 273.071 157.651H273.065Z" fill="#C9D851"/>
<path d="M315.87 150.694C315.614 151.376 315.388 152.119 315.193 152.924C314.998 153.729 314.911 154.498 314.932 155.221C314.952 155.944 315.162 156.549 315.562 157.041C315.962 157.533 316.654 157.779 317.633 157.779C318.525 157.779 319.397 157.528 320.248 157.02C321.099 156.513 321.919 155.867 322.709 155.083C323.498 154.298 324.221 153.432 324.882 152.473C325.544 151.52 326.087 150.597 326.518 149.705L327.866 147.029L332.777 147.044L330.404 151.945C329.722 153.391 328.855 154.852 327.81 156.339C326.764 157.825 325.6 159.158 324.324 160.342C323.047 161.527 321.673 162.49 320.202 163.234C318.73 163.977 317.213 164.341 315.639 164.336C313.937 164.336 312.43 163.859 311.118 162.921C309.8 161.983 308.852 160.706 308.262 159.086C307.027 160.573 305.663 161.757 304.171 162.644C302.679 163.531 301.106 163.972 299.45 163.967C296.856 163.962 294.702 163.475 292.98 162.516C291.263 161.552 289.955 160.307 289.068 158.774C288.182 157.241 287.664 155.488 287.52 153.509C287.377 151.53 287.561 149.505 288.079 147.424C288.597 145.342 289.407 143.317 290.519 141.344C291.632 139.37 292.975 137.622 294.549 136.094C296.128 134.566 297.922 133.331 299.947 132.377C301.967 131.429 304.146 130.952 306.488 130.962C308.401 130.967 309.969 131.388 311.205 132.218C312.435 133.054 313.389 134.105 314.065 135.381L315.414 131.624L322.873 131.644L315.87 150.684V150.694ZM308.344 150.93C308.385 150.802 308.431 150.684 308.472 150.582C308.513 150.474 308.559 150.356 308.6 150.233L310.851 143.989C311.066 143.312 311.143 142.589 311.082 141.82C311.02 141.056 310.831 140.354 310.513 139.713C310.195 139.078 309.728 138.555 309.113 138.15C308.498 137.745 307.724 137.54 306.786 137.54C305.212 137.54 303.715 138.032 302.285 139.026C300.859 140.021 299.609 141.262 298.547 142.743C297.481 144.23 296.635 145.85 296.015 147.613C295.395 149.377 295.092 151.002 295.107 152.489C295.123 153.975 295.492 155.221 296.215 156.221C296.933 157.22 298.101 157.723 299.716 157.728C300.649 157.728 301.521 157.554 302.331 157.195C303.141 156.836 303.894 156.339 304.597 155.703C305.299 155.067 305.96 154.334 306.581 153.509C307.196 152.683 307.785 151.822 308.339 150.93H308.344Z" fill="#C9D851"/>
<path d="M347.936 150.787C347.68 151.468 347.454 152.212 347.259 153.017C347.064 153.821 346.987 154.59 347.028 155.313C347.069 156.036 347.29 156.641 347.695 157.133C348.095 157.625 348.787 157.871 349.766 157.871C350.658 157.871 351.53 157.62 352.381 157.113C353.232 156.605 354.052 155.959 354.841 155.175C355.631 154.39 356.354 153.524 357.015 152.565C357.676 151.612 358.22 150.689 358.65 149.797L359.993 147.121L364.905 147.136L362.531 152.037C361.844 153.483 360.983 154.944 359.937 156.431C358.891 157.918 357.728 159.25 356.451 160.435C355.175 161.619 353.801 162.583 352.329 163.326C350.863 164.064 349.341 164.433 347.767 164.428C346.321 164.428 345.003 164.069 343.819 163.367C342.63 162.665 341.687 161.68 340.989 160.424C340.292 159.168 339.892 157.682 339.79 155.959C339.687 154.237 340 152.355 340.733 150.32L345.168 138.155C343.507 138.534 341.764 138.719 339.938 138.714C339.472 138.714 338.99 138.714 338.503 138.714C338.016 138.714 337.514 138.667 337.006 138.58C336.278 139.811 335.576 141.19 334.889 142.717C334.202 144.245 333.561 145.583 332.966 146.726L331.618 149.402L326.707 149.387L329.08 144.486C329.593 143.384 330.137 142.251 330.716 141.082C331.295 139.913 331.88 138.801 332.479 137.739C332.141 137.652 331.798 137.555 331.459 137.447C331.121 137.34 330.777 137.242 330.439 137.16L332.11 131.68C333.597 132.152 334.986 132.485 336.283 132.68C337.58 132.874 338.821 132.972 340.01 132.977C341.456 132.977 342.794 132.869 344.029 132.639C345.265 132.408 346.434 132.105 347.541 131.726L354.939 131.747L347.936 150.792V150.787Z" fill="#C9D851"/>
<path d="M374.183 157.938C376.054 157.943 377.72 157.692 379.192 157.19C380.658 156.682 381.96 156.041 383.088 155.257C384.216 154.472 385.174 153.606 385.964 152.653C386.753 151.699 387.404 150.776 387.917 149.884L389.388 147.208L394.3 147.224L391.798 152.125C391.07 153.524 390.111 154.97 388.917 156.451C387.722 157.938 386.359 159.271 384.826 160.455C383.293 161.639 381.611 162.613 379.781 163.372C377.951 164.131 376.018 164.51 373.978 164.505C370.959 164.495 368.452 164.013 366.457 163.049C364.463 162.085 362.905 160.829 361.782 159.276C360.659 157.723 359.952 155.944 359.66 153.944C359.367 151.945 359.424 149.894 359.839 147.793C360.249 145.691 360.977 143.64 362.023 141.646C363.069 139.652 364.371 137.883 365.929 136.335C367.483 134.787 369.272 133.541 371.297 132.587C373.317 131.639 375.501 131.167 377.838 131.172C380.007 131.178 381.842 131.654 383.349 132.592C384.857 133.531 385.923 134.735 386.559 136.202C387.194 137.668 387.348 139.288 387.02 141.046C386.697 142.81 385.8 144.507 384.329 146.142C382.857 147.772 380.74 149.223 377.972 150.489C375.203 151.755 371.697 152.637 367.442 153.134C367.78 154.498 368.477 155.636 369.538 156.549C370.6 157.466 372.148 157.928 374.188 157.933L374.183 157.938ZM367.965 147.08C371.41 146.88 374.163 146.27 376.229 145.255C378.295 144.24 379.709 143.184 380.478 142.082C381.247 140.979 381.417 139.98 380.996 139.088C380.571 138.196 379.617 137.745 378.131 137.739C376.982 137.739 375.885 138.001 374.844 138.529C373.799 139.057 372.835 139.754 371.938 140.626C371.041 141.492 370.251 142.492 369.569 143.615C368.887 144.737 368.349 145.896 367.965 147.085V147.08Z" fill="#C9D851"/>
<path d="M83.6017 109.539L72.2516 109.508C69.6576 109.498 67.648 110.077 66.2228 111.246C64.7925 112.409 64.0799 113.804 64.0748 115.419C64.0748 116.48 64.5567 117.567 65.5307 118.674C66.5048 119.781 67.7967 120.509 69.4115 120.853L66.8431 126.518C64.6336 125.831 62.8752 124.99 61.5577 123.985C60.2402 122.98 59.2559 121.95 58.5997 120.884C57.9435 119.817 57.5231 118.797 57.3334 117.818C57.1437 116.839 57.0515 116.034 57.0515 115.393C57.0515 113.737 57.3693 112.133 57.9896 110.584C58.6099 109.036 59.5071 107.657 60.681 106.447C61.855 105.237 63.2699 104.279 64.9309 103.556C66.5919 102.838 68.4426 102.484 70.483 102.49L92.6706 102.551L90.2867 111.471C89.5537 114.106 88.8257 116.793 88.0977 119.53C87.3646 122.268 86.5751 125.021 85.7139 127.779L105.097 127.835L114.412 102.551L121.81 102.572L104.205 150.848C103.903 151.612 103.539 152.683 103.113 154.062C102.683 155.441 102.406 156.79 102.273 158.107C102.139 159.425 102.308 160.573 102.775 161.552C103.241 162.531 104.216 163.024 105.702 163.029C106.81 163.029 107.922 162.726 109.05 162.116C110.178 161.501 111.167 160.881 112.018 160.245L116.847 164.977C114.971 166.587 113.12 167.837 111.29 168.724C109.46 169.611 107.527 170.052 105.487 170.047C102.939 170.042 100.878 169.493 99.3094 168.401C97.7407 167.315 96.618 165.864 95.9413 164.054C95.2646 162.244 95.0185 160.132 95.1928 157.707C95.3671 155.288 95.9516 152.735 96.9359 150.064L102.785 134.141L83.6581 134.084C82.2432 138.206 80.6694 142.107 78.9366 145.804C77.2038 149.495 75.2609 152.745 73.1077 155.544C70.9546 158.343 68.5554 160.568 65.9152 162.219C63.2751 163.869 60.3171 164.69 57.0463 164.679C55.7288 164.679 54.4215 164.459 53.1297 164.028C51.8327 163.598 50.6228 162.977 49.5001 162.167C48.3774 161.357 47.388 160.399 46.5421 159.292C45.6962 158.184 45.04 156.949 44.5786 155.59L51.2175 152.483C51.3456 152.95 51.5763 153.493 51.9147 154.114C52.253 154.729 52.6888 155.308 53.2168 155.841C53.7448 156.375 54.3959 156.831 55.1598 157.215C55.9236 157.6 56.7951 157.795 57.7743 157.795C59.9838 157.8 62.0601 157.031 63.9979 155.482C65.9357 153.939 67.7249 151.879 69.3705 149.315C71.011 146.747 72.5285 143.82 73.9229 140.528C75.3122 137.237 76.5887 133.843 77.7473 130.337C78.9058 126.835 79.9465 123.365 80.8693 119.92C81.7921 116.48 82.6175 113.337 83.3506 110.492L83.6069 109.539H83.6017Z" fill="#0B3C49"/>
<path d="M128.807 152.704C130.678 152.709 132.344 152.458 133.816 151.956C135.282 151.448 136.579 150.807 137.712 150.023C138.84 149.238 139.798 148.372 140.588 147.419C141.377 146.465 142.028 145.542 142.541 144.65L144.018 141.974L148.929 141.99L146.427 146.891C145.699 148.29 144.74 149.736 143.546 151.217C142.351 152.704 140.988 154.037 139.455 155.221C137.922 156.405 136.241 157.379 134.41 158.138C132.58 158.897 130.648 159.276 128.607 159.271C125.588 159.261 123.081 158.779 121.087 157.815C119.092 156.851 117.534 155.595 116.411 154.042C115.288 152.489 114.581 150.71 114.289 148.71C113.997 146.711 114.058 144.66 114.463 142.559C114.873 140.457 115.601 138.406 116.647 136.412C117.693 134.418 118.995 132.649 120.553 131.101C122.107 129.553 123.896 128.307 125.921 127.353C127.941 126.4 130.12 125.928 132.462 125.938C134.631 125.944 136.466 126.42 137.973 127.358C139.481 128.297 140.547 129.501 141.183 130.973C141.818 132.439 141.972 134.059 141.649 135.817C141.326 137.581 140.429 139.278 138.958 140.908C137.486 142.538 135.369 143.989 132.601 145.255C129.832 146.521 126.326 147.403 122.071 147.9C122.404 149.264 123.106 150.402 124.168 151.315C125.229 152.232 126.777 152.694 128.817 152.699L128.807 152.704ZM122.589 141.846C126.034 141.646 128.787 141.036 130.853 140.021C132.919 139.006 134.334 137.95 135.103 136.848C135.872 135.745 136.041 134.746 135.62 133.854C135.2 132.962 134.241 132.511 132.755 132.505C131.606 132.505 130.509 132.767 129.468 133.295C128.423 133.823 127.459 134.52 126.562 135.392C125.665 136.263 124.875 137.258 124.193 138.38C123.511 139.503 122.973 140.662 122.589 141.851V141.846Z" fill="#0B3C49"/>
<path d="M171.608 145.747C171.352 146.429 171.126 147.172 170.931 147.977C170.737 148.782 170.649 149.551 170.67 150.269C170.69 150.992 170.901 151.597 171.3 152.089C171.7 152.581 172.392 152.827 173.372 152.827C174.264 152.827 175.135 152.576 175.986 152.068C176.837 151.561 177.657 150.915 178.447 150.13C179.236 149.346 179.959 148.475 180.62 147.521C181.282 146.567 181.825 145.645 182.256 144.753L183.604 142.077L188.515 142.092L186.142 146.993C185.455 148.439 184.594 149.9 183.548 151.386C182.502 152.873 181.338 154.206 180.062 155.395C178.785 156.58 177.411 157.543 175.94 158.287C174.474 159.025 172.951 159.394 171.377 159.389C169.675 159.384 168.168 158.912 166.856 157.974C165.538 157.036 164.59 155.759 164 154.139C162.765 155.626 161.401 156.81 159.909 157.697C158.417 158.584 156.844 159.025 155.188 159.025C152.594 159.015 150.441 158.533 148.723 157.574C147.006 156.615 145.699 155.365 144.812 153.832C143.925 152.299 143.407 150.546 143.263 148.567C143.12 146.588 143.304 144.563 143.822 142.482C144.34 140.4 145.15 138.375 146.262 136.402C147.375 134.428 148.718 132.68 150.292 131.152C151.871 129.624 153.67 128.389 155.69 127.435C157.71 126.487 159.894 126.015 162.232 126.02C164.144 126.025 165.713 126.446 166.948 127.276C168.178 128.107 169.132 129.163 169.809 130.439L171.157 126.682L178.616 126.702L171.613 145.747H171.608ZM164.082 145.978C164.123 145.85 164.169 145.737 164.21 145.629C164.251 145.522 164.298 145.404 164.339 145.281L166.589 139.037C166.804 138.36 166.881 137.637 166.82 136.868C166.758 136.104 166.569 135.402 166.251 134.761C165.933 134.12 165.466 133.602 164.851 133.197C164.236 132.792 163.462 132.587 162.524 132.582C160.95 132.582 159.453 133.074 158.023 134.069C156.598 135.063 155.347 136.304 154.28 137.786C153.214 139.272 152.368 140.892 151.748 142.656C151.128 144.419 150.825 146.045 150.84 147.531C150.856 149.018 151.225 150.264 151.948 151.263C152.666 152.263 153.834 152.765 155.449 152.771C156.382 152.771 157.254 152.596 158.064 152.237C158.874 151.879 159.627 151.381 160.33 150.746C161.032 150.11 161.693 149.377 162.314 148.551C162.934 147.726 163.518 146.865 164.072 145.973L164.082 145.978Z" fill="#0B3C49"/>
<path d="M189.649 145.798C189.392 146.48 189.167 147.224 188.972 148.028C188.777 148.833 188.69 149.602 188.71 150.325C188.731 151.048 188.941 151.653 189.341 152.145C189.741 152.637 190.433 152.883 191.412 152.883C192.304 152.883 193.176 152.632 194.027 152.125C194.878 151.617 195.698 150.971 196.487 150.187C197.277 149.402 198 148.536 198.661 147.577C199.322 146.624 199.866 145.701 200.296 144.809L201.645 142.133L206.556 142.148L204.182 147.049C203.495 148.495 202.634 149.956 201.588 151.443C200.542 152.929 199.379 154.262 198.102 155.452C196.826 156.641 195.452 157.6 193.98 158.343C192.514 159.081 190.992 159.45 189.418 159.445C187.972 159.445 186.655 159.086 185.47 158.384C184.281 157.677 183.338 156.697 182.641 155.441C181.943 154.185 181.544 152.699 181.441 150.976C181.338 149.254 181.651 147.372 182.379 145.337L195.037 110.815L202.496 110.835L189.643 145.798H189.649Z" fill="#0B3C49"/>
<path d="M207.694 145.85C207.438 146.531 207.243 147.275 207.115 148.08C206.987 148.885 207.023 149.654 207.238 150.376C207.448 151.099 207.874 151.709 208.51 152.196C209.145 152.688 210.104 152.935 211.375 152.94C212.267 152.94 213.139 152.688 213.99 152.181C214.841 151.673 215.661 151.027 216.451 150.243C217.24 149.459 217.963 148.587 218.624 147.634C219.285 146.68 219.829 145.757 220.26 144.865L221.608 142.189L226.519 142.205L224.145 147.106C223.458 148.551 222.597 150.012 221.551 151.499C220.506 152.986 219.342 154.319 218.065 155.508C216.789 156.692 215.415 157.656 213.944 158.399C212.477 159.138 210.955 159.507 209.381 159.502C207.597 159.496 205.992 159.143 204.572 158.435C203.147 157.728 202.004 156.749 201.138 155.493C200.271 154.237 199.743 152.745 199.559 151.027C199.374 149.305 199.666 147.424 200.435 145.388L205.382 131.885L201.876 131.875L203.742 126.779L207.248 126.789L211.939 114.05L219.398 114.07L214.707 126.81L220.316 126.825L218.45 131.921L212.841 131.906L207.7 145.855L207.694 145.85Z" fill="#0B3C49"/>
<path d="M214.734 158.815L232.277 110.917L239.736 110.938L232.795 129.855C234.2 128.753 235.722 127.876 237.363 127.22C238.998 126.564 240.757 126.241 242.628 126.246C244.412 126.251 245.986 126.605 247.344 127.312C248.703 128.02 249.774 128.999 250.559 130.255C251.343 131.511 251.794 132.997 251.917 134.72C252.04 136.442 251.717 138.324 250.943 140.359L248.821 146.091C248.564 146.772 248.339 147.516 248.144 148.321C247.949 149.126 247.862 149.894 247.883 150.617C247.903 151.34 248.113 151.945 248.513 152.437C248.913 152.929 249.605 153.175 250.584 153.175C251.476 153.175 252.348 152.924 253.199 152.417C254.05 151.909 254.87 151.263 255.659 150.479C256.449 149.695 257.172 148.823 257.833 147.87C258.494 146.916 259.038 145.993 259.468 145.101L260.817 142.425L265.728 142.441L263.354 147.341C262.667 148.787 261.806 150.248 260.76 151.735C259.715 153.222 258.551 154.554 257.274 155.744C255.998 156.928 254.624 157.892 253.153 158.635C251.681 159.379 250.164 159.743 248.59 159.737C247.144 159.737 245.827 159.379 244.643 158.676C243.453 157.969 242.51 156.99 241.813 155.734C241.115 154.478 240.716 152.991 240.613 151.268C240.511 149.546 240.823 147.664 241.551 145.629L243.674 139.898C243.93 139.221 244.156 138.478 244.35 137.668C244.545 136.863 244.576 136.094 244.453 135.371C244.33 134.648 243.976 134.043 243.407 133.551C242.833 133.059 241.91 132.813 240.634 132.808C238.978 132.803 237.424 133.274 235.974 134.228C234.528 135.181 233.246 136.314 232.139 137.627C231.032 138.939 230.068 140.298 229.258 141.697C228.448 143.097 227.848 144.245 227.464 145.137L226.054 148.321L222.199 158.83L214.74 158.81L214.734 158.815Z" fill="#0B3C49"/>
<path d="M275.06 153.119C276.931 153.124 278.597 152.873 280.069 152.371C281.535 151.863 282.837 151.222 283.965 150.438C285.093 149.654 286.051 148.787 286.841 147.834C287.63 146.88 288.281 145.957 288.794 145.065L290.265 142.394L295.177 142.41L292.675 147.311C291.947 148.71 290.988 150.156 289.794 151.638C288.599 153.124 287.236 154.457 285.703 155.641C284.17 156.826 282.488 157.8 280.658 158.558C278.828 159.317 276.895 159.696 274.855 159.686C271.835 159.676 269.329 159.194 267.334 158.23C265.34 157.267 263.782 156.011 262.659 154.457C261.536 152.904 260.829 151.125 260.537 149.126C260.244 147.126 260.301 145.076 260.716 142.974C261.126 140.872 261.854 138.821 262.9 136.827C263.946 134.833 265.248 133.064 266.806 131.516C268.36 129.968 270.149 128.722 272.174 127.768C274.194 126.82 276.378 126.348 278.715 126.354C280.499 126.359 282.053 126.671 283.365 127.292C284.683 127.912 285.677 128.819 286.354 130.009C287.031 131.203 287.353 132.639 287.328 134.315C287.302 135.997 286.82 137.893 285.877 140.016L279.951 139.042C280.248 138.406 280.53 137.734 280.786 137.037C281.043 136.34 281.171 135.679 281.176 135.064C281.176 134.448 281.017 133.936 280.699 133.531C280.381 133.126 279.817 132.921 279.013 132.921C277.439 132.921 275.952 133.413 274.547 134.407C273.143 135.402 271.928 136.642 270.902 138.124C269.877 139.611 269.118 141.231 268.626 142.994C268.134 144.758 268.001 146.383 268.232 147.87C268.462 149.356 269.113 150.602 270.195 151.607C271.277 152.607 272.902 153.114 275.065 153.119H275.06Z" fill="#0B3C49"/>
<path d="M317.857 146.162C317.601 146.844 317.375 147.588 317.181 148.392C316.986 149.197 316.899 149.966 316.919 150.689C316.94 151.412 317.15 152.017 317.55 152.509C317.95 153.001 318.642 153.247 319.621 153.247C320.513 153.247 321.384 152.996 322.235 152.488C323.086 151.981 323.907 151.335 324.696 150.551C325.486 149.766 326.208 148.9 326.87 147.941C327.531 146.988 328.075 146.065 328.505 145.173L329.853 142.497L334.765 142.512L332.391 147.413C331.709 148.859 330.843 150.32 329.797 151.807C328.751 153.293 327.587 154.626 326.311 155.81C325.034 156.995 323.661 157.958 322.189 158.702C320.723 159.44 319.2 159.809 317.627 159.804C315.925 159.804 314.417 159.327 313.105 158.389C311.788 157.451 310.839 156.174 310.25 154.554C309.014 156.041 307.65 157.225 306.159 158.112C304.667 158.999 303.093 159.44 301.437 159.435C298.843 159.43 296.69 158.943 294.967 157.984C293.25 157.02 291.943 155.775 291.056 154.242C290.169 152.709 289.651 150.956 289.508 148.977C289.364 146.998 289.549 144.973 290.066 142.892C290.584 140.81 291.394 138.785 292.507 136.812C293.619 134.838 294.962 133.09 296.536 131.562C298.115 130.034 299.909 128.799 301.934 127.845C303.954 126.897 306.133 126.42 308.476 126.43C310.388 126.435 311.957 126.856 313.192 127.686C314.423 128.522 315.376 129.573 316.053 130.849L317.401 127.092L324.86 127.112L317.857 146.152V146.162ZM310.337 146.398C310.378 146.27 310.424 146.152 310.465 146.05C310.506 145.942 310.552 145.824 310.593 145.701L312.844 139.457C313.059 138.78 313.136 138.057 313.074 137.288C313.013 136.524 312.823 135.822 312.505 135.181C312.187 134.546 311.721 134.023 311.106 133.618C310.491 133.213 309.716 133.008 308.778 133.008C307.204 133.008 305.707 133.5 304.277 134.494C302.852 135.489 301.601 136.73 300.54 138.211C299.474 139.698 298.628 141.318 298.007 143.081C297.387 144.845 297.085 146.47 297.1 147.957C297.115 149.443 297.485 150.689 298.207 151.689C298.925 152.688 300.094 153.191 301.709 153.196C302.642 153.196 303.513 153.022 304.323 152.663C305.133 152.304 305.887 151.807 306.589 151.171C307.292 150.535 307.953 149.802 308.573 148.977C309.188 148.151 309.778 147.29 310.332 146.398H310.337Z" fill="#0B3C49"/>
<path d="M349.93 146.255C349.674 146.937 349.449 147.68 349.254 148.485C349.059 149.29 348.982 150.059 349.023 150.781C349.064 151.504 349.285 152.109 349.69 152.601C350.089 153.094 350.781 153.34 351.761 153.34C352.653 153.34 353.524 153.088 354.375 152.581C355.226 152.073 356.046 151.427 356.836 150.643C357.625 149.859 358.348 148.992 359.01 148.034C359.671 147.08 360.214 146.157 360.645 145.265L361.988 142.589L366.899 142.605L364.526 147.506C363.839 148.951 362.978 150.412 361.932 151.899C360.886 153.386 359.722 154.719 358.446 155.903C357.169 157.087 355.795 158.051 354.324 158.794C352.858 159.532 351.335 159.902 349.761 159.896C348.316 159.896 346.998 159.538 345.814 158.835C344.625 158.133 343.681 157.149 342.984 155.893C342.287 154.637 341.887 153.15 341.784 151.427C341.682 149.705 341.995 147.823 342.728 145.788L347.162 133.623C345.501 134.002 343.758 134.187 341.933 134.182C341.467 134.182 340.985 134.182 340.498 134.182C340.011 134.182 339.508 134.136 339.001 134.049C338.273 135.279 337.57 136.658 336.883 138.186C336.197 139.713 335.556 141.051 334.961 142.195L333.613 144.871L328.702 144.855L331.075 139.954C331.588 138.852 332.131 137.719 332.71 136.55C333.29 135.381 333.874 134.269 334.474 133.208C334.136 133.121 333.792 133.023 333.454 132.916C333.115 132.808 332.772 132.71 332.434 132.628L334.105 127.148C335.592 127.62 336.981 127.953 338.278 128.148C339.575 128.343 340.816 128.44 342.005 128.445C343.451 128.445 344.789 128.338 346.024 128.107C347.26 127.876 348.428 127.574 349.536 127.194L356.933 127.215L349.93 146.26V146.255Z" fill="#0B3C49"/>
<path d="M376.178 153.406C378.049 153.411 379.715 153.16 381.186 152.658C382.653 152.15 383.955 151.509 385.082 150.725C386.21 149.941 387.169 149.074 387.958 148.121C388.748 147.167 389.399 146.245 389.912 145.352L391.383 142.676L396.294 142.692L393.792 147.593C393.064 148.992 392.106 150.438 390.911 151.92C389.717 153.406 388.353 154.739 386.82 155.923C385.288 157.108 383.606 158.082 381.776 158.84C379.946 159.599 378.013 159.978 375.973 159.973C372.953 159.963 370.446 159.481 368.452 158.517C366.458 157.554 364.899 156.298 363.777 154.744C362.654 153.191 361.946 151.412 361.654 149.413C361.362 147.413 361.418 145.363 361.834 143.261C362.244 141.159 362.972 139.108 364.018 137.114C365.063 135.12 366.366 133.351 367.924 131.803C369.477 130.255 371.266 129.009 373.291 128.056C375.311 127.107 377.495 126.636 379.833 126.641C382.001 126.646 383.837 127.123 385.344 128.061C386.851 128.999 387.917 130.204 388.553 131.67C389.189 133.136 389.343 134.756 389.015 136.514C388.692 138.278 387.794 139.975 386.323 141.61C384.852 143.24 382.735 144.691 379.966 145.957C377.198 147.224 373.691 148.105 369.436 148.603C369.775 149.966 370.472 151.104 371.533 152.017C372.594 152.935 374.142 153.396 376.183 153.401L376.178 153.406ZM369.959 142.553C373.404 142.353 376.157 141.743 378.223 140.728C380.289 139.713 381.704 138.657 382.473 137.555C383.242 136.453 383.411 135.453 382.991 134.561C382.565 133.669 381.612 133.218 380.125 133.213C378.977 133.213 377.88 133.474 376.839 134.002C375.793 134.53 374.829 135.228 373.932 136.099C373.035 136.966 372.246 137.965 371.564 139.088C370.882 140.211 370.344 141.369 369.959 142.559V142.553Z" fill="#0B3C49"/>
<path d="M175.397 190.656C174.131 191.917 172.593 192.819 170.788 193.378C172.316 193.634 173.557 194.378 174.52 195.608C175.484 196.843 175.961 198.299 175.956 199.981C175.956 200.478 175.904 200.96 175.812 201.426C175.525 203.077 174.843 204.564 173.767 205.887C172.69 207.209 171.275 208.25 169.527 209.004C167.779 209.762 165.815 210.136 163.637 210.131L151.487 210.095L157.372 177.537L169.055 177.568C171.983 177.578 174.202 178.208 175.71 179.454C177.217 180.705 177.965 182.33 177.96 184.319C177.96 184.817 177.909 185.329 177.817 185.862C177.468 187.795 176.663 189.389 175.397 190.645V190.656ZM171.752 199.781C171.752 198.351 171.229 197.207 170.173 196.367C169.117 195.521 167.666 195.095 165.831 195.09L158.449 195.07L156.357 206.748L163.883 206.768C165.969 206.773 167.702 206.266 169.076 205.241C170.45 204.215 171.296 202.8 171.614 200.996C171.706 200.56 171.757 200.155 171.757 199.781H171.752ZM173.521 185.206C173.521 183.868 173.059 182.822 172.126 182.069C171.193 181.32 169.84 180.941 168.061 180.936L161.002 180.915L159.054 191.707L166.205 191.727C168.169 191.732 169.789 191.266 171.07 190.317C172.352 189.369 173.131 188.056 173.418 186.375C173.48 186.093 173.516 185.703 173.516 185.206H173.521Z" fill="#0B3C49"/>
<path d="M199.573 185.442C201.142 186.273 202.341 187.431 203.162 188.908C203.982 190.389 204.392 192.081 204.387 193.983C204.387 194.639 204.305 195.429 204.146 196.367C204.018 197.177 203.813 198.017 203.531 198.889L183.061 198.833C182.994 199.458 182.963 199.909 182.963 200.186C182.958 202.334 183.599 204.01 184.886 205.215C186.172 206.42 187.864 207.025 189.951 207.03C191.786 207.035 193.401 206.609 194.79 205.758C196.179 204.907 197.235 203.764 197.953 202.334L202.531 202.349C201.403 204.81 199.676 206.804 197.348 208.342C195.021 209.88 192.334 210.639 189.279 210.634C186.07 210.624 183.496 209.691 181.553 207.83C179.61 205.969 178.647 203.436 178.652 200.227C178.652 199.325 178.749 198.356 178.939 197.33C179.416 194.685 180.369 192.363 181.81 190.374C183.25 188.385 185.019 186.857 187.126 185.786C189.233 184.719 191.514 184.186 193.975 184.191C196.123 184.196 197.984 184.617 199.558 185.447L199.573 185.442ZM199.993 194.065C199.999 192.071 199.373 190.528 198.112 189.431C196.851 188.339 195.21 187.785 193.185 187.78C191.007 187.775 189.023 188.477 187.244 189.887C185.465 191.302 184.26 193.25 183.63 195.741L199.845 195.787C199.942 195.167 199.988 194.588 199.988 194.06L199.993 194.065Z" fill="#0B3C49"/>
<path d="M211.836 203.262C211.744 203.728 211.692 204.133 211.692 204.477C211.692 205.256 211.928 205.815 212.41 206.163C212.892 206.507 213.676 206.681 214.768 206.686L217.901 206.697L217.234 210.295L213.4 210.285C211.375 210.28 209.857 209.885 208.847 209.106C207.837 208.322 207.335 207.045 207.34 205.271C207.34 204.584 207.407 203.918 207.535 203.262L210.242 188.174L206.971 188.164L207.586 184.663L210.903 184.673L212.041 178.229L216.342 178.239L215.204 184.683L221.838 184.704L221.223 188.21L214.538 188.19L211.831 203.277L211.836 203.262Z" fill="#0B3C49"/>
<path d="M227.912 203.308C227.82 203.774 227.769 204.18 227.769 204.523C227.769 205.302 228.005 205.861 228.486 206.21C228.968 206.553 229.753 206.727 230.845 206.733L233.977 206.743L233.311 210.342L229.481 210.331C227.456 210.326 225.939 209.931 224.929 209.152C223.919 208.373 223.416 207.091 223.421 205.318C223.421 204.631 223.488 203.964 223.616 203.308L226.323 188.221L223.052 188.21L223.668 184.704L226.984 184.714L228.122 178.27L232.424 178.28L231.286 184.724L237.919 184.745L237.304 188.246L230.624 188.226L227.917 203.313L227.912 203.308Z" fill="#0B3C49"/>
<path d="M257.899 185.611C259.473 186.442 260.667 187.6 261.488 189.082C262.308 190.563 262.718 192.255 262.713 194.157C262.713 194.813 262.631 195.603 262.472 196.541C262.344 197.351 262.139 198.192 261.857 199.063L241.386 199.007C241.32 199.627 241.289 200.078 241.289 200.36C241.284 202.508 241.925 204.185 243.211 205.389C244.498 206.594 246.19 207.199 248.276 207.204C250.117 207.209 251.727 206.784 253.116 205.933C254.505 205.082 255.561 203.939 256.279 202.508L260.857 202.524C259.729 204.984 258.001 206.979 255.674 208.517C253.347 210.055 250.66 210.813 247.605 210.808C244.396 210.798 241.817 209.865 239.879 208.004C237.936 206.143 236.972 203.611 236.978 200.401C236.978 199.499 237.075 198.53 237.265 197.505C237.741 194.86 238.695 192.542 240.136 190.548C241.576 188.559 243.345 187.031 245.452 185.96C247.559 184.894 249.84 184.36 252.301 184.366C254.449 184.371 256.31 184.791 257.884 185.622L257.899 185.611ZM258.319 194.234C258.324 192.24 257.699 190.697 256.438 189.605C255.177 188.508 253.536 187.959 251.511 187.954C249.332 187.949 247.349 188.651 245.57 190.061C243.791 191.476 242.586 193.424 241.955 195.916L258.171 195.962C258.268 195.341 258.314 194.762 258.314 194.234H258.319Z" fill="#0B3C49"/>
<path d="M275.584 185.775C277.142 184.842 278.921 184.381 280.915 184.386L280.111 188.779H278.988C276.773 188.769 274.928 189.359 273.446 190.538C271.965 191.717 270.97 193.706 270.462 196.51L267.945 210.429L263.69 210.419L268.299 184.822L272.549 184.832L271.693 189.692C272.723 188.01 274.02 186.708 275.584 185.775Z" fill="#0B3C49"/>
<path d="M359.02 60.0933C353.693 60.0933 348.797 61.9337 344.927 65.025C339.734 69.157 336.401 75.5497 336.401 82.6961C336.401 95.1843 346.526 105.309 359.014 105.309C366.161 105.309 372.554 101.982 376.686 96.7838C379.777 92.9184 381.617 88.0277 381.617 82.691C381.617 70.213 371.492 60.0881 359.014 60.0881L359.02 60.0933ZM371.477 85.6849H362.234V95.1638H355.79V85.6849H346.557V79.7176H355.79V70.2438H362.234V79.7176H371.477V85.6849Z" fill="#52B2AD"/>
<path d="M371.477 79.7175V85.6848H362.234V95.1637H355.79V85.6848H346.557V79.7175H355.79V70.2437H362.234V79.7175H371.477Z" fill="#FEFFD2"/>
<path d="M385.237 79.0767C385.237 86.2488 381.894 92.6518 376.691 96.7889C379.777 92.9184 381.617 88.0277 381.617 82.6961C381.617 70.2181 371.498 60.0932 359.014 60.0932C353.683 60.0932 348.792 61.9336 344.922 65.0198C349.054 59.8164 355.462 56.4739 362.634 56.4739C375.112 56.4739 385.237 66.5936 385.237 79.0767Z" fill="#C9D851"/>
<path d="M394.49 54.0029C400.376 54.0029 405.148 49.2311 405.148 43.3448C405.148 37.4585 400.376 32.6868 394.49 32.6868C388.603 32.6868 383.832 37.4585 383.832 43.3448C383.832 49.2311 388.603 54.0029 394.49 54.0029Z" fill="#3F7D20"/>
<path d="M381.275 15.2821C384.964 15.2821 387.955 12.2914 387.955 8.60223C387.955 4.91304 384.964 1.92236 381.275 1.92236C377.586 1.92236 374.595 4.91304 374.595 8.60223C374.595 12.2914 377.586 15.2821 381.275 15.2821Z" fill="#A4AF12"/>
<path d="M248.98 65.2094C250.701 65.2094 252.097 63.8139 252.097 62.0925C252.097 60.3711 250.701 58.9756 248.98 58.9756C247.258 58.9756 245.863 60.3711 245.863 62.0925C245.863 63.8139 247.258 65.2094 248.98 65.2094Z" fill="#0B3C49"/>
</svg>
